<svg xmlns="http://www.w3.org/2000/svg" xmlns:xlink="http://www.w3.org/1999/xlink" contentStyleType="text/css" data-diagram-type="DESCRIPTION" height="1050px" preserveAspectRatio="none" style="width:1038px;height:1050px;background:#0D1117;" version="1.1" viewBox="0 0 1038 1050" width="1038px" zoomAndPan="magnify"><?plantuml $version$?><defs/><g><rect fill="#0D1117" height="1050" style="stroke:none;stroke-width:1;" width="1038" x="0" y="0"/><g class="title" data-source-line="38"><text fill="#C9D1D9" font-family="Verdana" font-size="14" font-weight="700" lengthAdjust="spacing" textLength="211.0912" x="412.4544" y="29.9659">csv-to-parquet &#8212; Architecture</text></g><!--cluster cli--><g class="cluster" data-qualified-name="cli" data-source-line="46" id="ent0001"><path d="M35.5,51.6699 L58.7599,51.6699 A3.75,3.75 0 0 1 61.2599,54.1699 L68.2599,76.7378 L255.5,76.7378 A2.5,2.5 0 0 1 258,79.2378 L258,412.1099 A2.5,2.5 0 0 1 255.5,414.6099 L35.5,414.6099 A2.5,2.5 0 0 1 33,412.1099 L33,54.1699 A2.5,2.5 0 0 1 35.5,51.6699" fill="#21262D" style="stroke:#30363D;stroke-width:1;"/><line style="stroke:#30363D;stroke-width:1;" x1="33" x2="68.2599" y1="76.7378" y2="76.7378"/><text fill="#8B949E" font-family="Verdana" font-size="14" font-weight="700" lengthAdjust="spacing" textLength="22.2599" x="37" y="68.6358">CLI</text></g><!--cluster conv--><g class="cluster" data-qualified-name="conv" data-source-line="54" id="ent0007"><path d="M284.5,195.6499 L317.8539,195.6499 A3.75,3.75 0 0 1 320.3539,198.1499 L327.3539,220.7178 L623.5,220.7178 A2.5,2.5 0 0 1 626,223.2178 L626,892.0399 A2.5,2.5 0 0 1 623.5,894.5399 L284.5,894.5399 A2.5,2.5 0 0 1 282,892.0399 L282,198.1499 A2.5,2.5 0 0 1 284.5,195.6499" fill="#21262D" style="stroke:#30363D;stroke-width:1;"/><line style="stroke:#30363D;stroke-width:1;" x1="282" x2="327.3539" y1="220.7178" y2="220.7178"/><text fill="#8B949E" font-family="Verdana" font-size="14" font-weight="700" lengthAdjust="spacing" textLength="32.3539" x="286" y="212.6158">Core</text></g><!--cluster input--><g class="cluster" data-qualified-name="input" data-source-line="68" id="ent0019"><path d="M13.5,461.6099 L53.0698,461.6099 A3.75,3.75 0 0 1 55.5698,464.1099 L62.5698,486.6778 L138.5,486.6778 A2.5,2.5 0 0 1 141,489.1778 L141,892.0399 A2.5,2.5 0 0 1 138.5,894.5399 L13.5,894.5399 A2.5,2.5 0 0 1 11,892.0399 L11,464.1099 A2.5,2.5 0 0 1 13.5,461.6099" fill="#21262D" style="stroke:#30363D;stroke-width:1;"/><line style="stroke:#30363D;stroke-width:1;" x1="11" x2="62.5698" y1="486.6778" y2="486.6778"/><text fill="#8B949E" font-family="Verdana" font-size="14" font-weight="700" lengthAdjust="spacing" textLength="38.5698" x="15" y="478.5758">Input</text></g><!--cluster analysis--><g class="cluster" data-qualified-name="analysis" data-source-line="78" id="ent0027"><path d="M652.5,461.6099 L707.9318,461.6099 A3.75,3.75 0 0 1 710.4318,464.1099 L717.4318,486.6778 L781.5,486.6778 A2.5,2.5 0 0 1 784,489.1778 L784,1000.0199 A2.5,2.5 0 0 1 781.5,1002.5199 L652.5,1002.5199 A2.5,2.5 0 0 1 650,1000.0199 L650,464.1099 A2.5,2.5 0 0 1 652.5,461.6099" fill="#21262D" style="stroke:#30363D;stroke-width:1;"/><line style="stroke:#30363D;stroke-width:1;" x1="650" x2="717.4318" y1="486.6778" y2="486.6778"/><text fill="#8B949E" font-family="Verdana" font-size="14" font-weight="700" lengthAdjust="spacing" textLength="54.4318" x="654" y="478.5758">Schema</text></g><!--cluster export--><g class="cluster" data-qualified-name="export" data-source-line="90" id="ent0037"><path d="M810.5,195.6499 L857.3638,195.6499 A3.75,3.75 0 0 1 859.8638,198.1499 L866.8638,220.7178 L1020.5,220.7178 A2.5,2.5 0 0 1 1023,223.2178 L1023,784.0599 A2.5,2.5 0 0 1 1020.5,786.5599 L810.5,786.5599 A2.5,2.5 0 0 1 808,784.0599 L808,198.1499 A2.5,2.5 0 0 1 810.5,195.6499" fill="#21262D" style="stroke:#30363D;stroke-width:1;"/><line style="stroke:#30363D;stroke-width:1;" x1="808" x2="866.8638" y1="220.7178" y2="220.7178"/><text fill="#8B949E" font-family="Verdana" font-size="14" font-weight="700" lengthAdjust="spacing" textLength="45.8638" x="812" y="212.6158">Export</text></g><!--entity main--><g class="entity" data-qualified-name="cli.main" data-source-line="47" id="ent0002"><rect fill="#161B22" height="44.9819" rx="2.5" ry="2.5" style="stroke:#30363D;stroke-width:1;" width="66.0918" x="139.95" y="89.6699"/><rect fill="#161B22" height="10" style="stroke:#30363D;stroke-width:1;" width="15" x="186.0418" y="94.6699"/><rect fill="#161B22" height="2" style="stroke:#30363D;stroke-width:1;" width="4" x="184.0418" y="96.6699"/><rect fill="#161B22" height="2" style="stroke:#30363D;stroke-width:1;" width="4" x="184.0418" y="100.6699"/><text fill="#C9D1D9" font-family="Verdana" font-size="11" lengthAdjust="spacing" textLength="26.0918" x="154.95" y="121.4288">main</text></g><!--entity tui--><g class="entity" data-qualified-name="cli.tui" data-source-line="48" id="ent0003"><rect fill="#161B22" height="44.9819" rx="2.5" ry="2.5" style="stroke:#30363D;stroke-width:1;" width="53.6069" x="49.2" y="233.6499"/><rect fill="#161B22" height="10" style="stroke:#30363D;stroke-width:1;" width="15" x="82.8069" y="238.6499"/><rect fill="#161B22" height="2" style="stroke:#30363D;stroke-width:1;" width="4" x="80.8069" y="240.6499"/><rect fill="#161B22" height="2" style="stroke:#30363D;stroke-width:1;" width="4" x="80.8069" y="244.6499"/><text fill="#C9D1D9" font-family="Verdana" font-size="11" lengthAdjust="spacing" textLength="13.6069" x="64.2" y="265.4088">tui</text></g><!--entity inspect--><g class="entity" data-qualified-name="cli.inspect" data-source-line="49" id="ent0004"><rect fill="#161B22" height="44.9819" rx="2.5" ry="2.5" style="stroke:#30363D;stroke-width:1;" width="77.1247" x="92.44" y="353.6299"/><rect fill="#161B22" height="10" style="stroke:#30363D;stroke-width:1;" width="15" x="149.5647" y="358.6299"/><rect fill="#161B22" height="2" style="stroke:#30363D;stroke-width:1;" width="4" x="147.5647" y="360.6299"/><rect fill="#161B22" height="2" style="stroke:#30363D;stroke-width:1;" width="4" x="147.5647" y="364.6299"/><text fill="#C9D1D9" font-family="Verdana" font-size="11" lengthAdjust="spacing" textLength="37.1247" x="107.44" y="385.3888">inspect</text></g><!--entity orchestrator--><g class="entity" data-qualified-name="conv.orchestrator" data-source-line="55" id="ent0008"><rect fill="#161B22" height="44.9819" rx="2.5" ry="2.5" style="stroke:#30363D;stroke-width:1;" width="63.7048" x="414.15" y="233.6499"/><rect fill="#161B22" height="10" style="stroke:#30363D;stroke-width:1;" width="15" x="457.8548" y="238.6499"/><rect fill="#161B22" height="2" style="stroke:#30363D;stroke-width:1;" width="4" x="455.8548" y="240.6499"/><rect fill="#161B22" height="2" style="stroke:#30363D;stroke-width:1;" width="4" x="455.8548" y="244.6499"/><text fill="#C9D1D9" font-family="Verdana" font-size="11" lengthAdjust="spacing" textLength="23.7048" x="429.15" y="265.4088">mod</text></g><!--entity block_producer--><g class="entity" data-qualified-name="conv.block_producer" data-source-line="56" id="ent0009"><rect fill="#161B22" height="44.9819" rx="2.5" ry="2.5" style="stroke:#30363D;stroke-width:1;" width="93.7016" x="298.15" y="353.6299"/><rect fill="#161B22" height="10" style="stroke:#30363D;stroke-width:1;" width="15" x="371.8516" y="358.6299"/><rect fill="#161B22" height="2" style="stroke:#30363D;stroke-width:1;" width="4" x="369.8516" y="360.6299"/><rect fill="#161B22" height="2" style="stroke:#30363D;stroke-width:1;" width="4" x="369.8516" y="364.6299"/><text fill="#C9D1D9" font-family="Verdana" font-size="11" lengthAdjust="spacing" textLength="53.7016" x="313.15" y="385.3888">csv_blocks</text></g><!--entity pipeline--><g class="entity" data-qualified-name="conv.pipeline" data-source-line="57" id="ent0010"><rect fill="#161B22" height="44.9819" rx="2.5" ry="2.5" style="stroke:#30363D;stroke-width:1;" width="81.2497" x="415.38" y="499.6099"/><rect fill="#161B22" height="10" style="stroke:#30363D;stroke-width:1;" width="15" x="476.6297" y="504.6099"/><rect fill="#161B22" height="2" style="stroke:#30363D;stroke-width:1;" width="4" x="474.6297" y="506.6099"/><rect fill="#161B22" height="2" style="stroke:#30363D;stroke-width:1;" width="4" x="474.6297" y="510.6099"/><text fill="#C9D1D9" font-family="Verdana" font-size="11" lengthAdjust="spacing" textLength="41.2497" x="430.38" y="531.3688">pipeline</text></g><!--entity writer--><g class="entity" data-qualified-name="conv.writer" data-source-line="58" id="ent0011"><rect fill="#161B22" height="44.9819" rx="2.5" ry="2.5" style="stroke:#30363D;stroke-width:1;" width="70.7448" x="388.63" y="619.5899"/><rect fill="#161B22" height="10" style="stroke:#30363D;stroke-width:1;" width="15" x="439.3748" y="624.5899"/><rect fill="#161B22" height="2" style="stroke:#30363D;stroke-width:1;" width="4" x="437.3748" y="626.5899"/><rect fill="#161B22" height="2" style="stroke:#30363D;stroke-width:1;" width="4" x="437.3748" y="630.5899"/><text fill="#C9D1D9" font-family="Verdana" font-size="11" lengthAdjust="spacing" textLength="30.7448" x="403.63" y="651.3488">writer</text></g><!--entity ticker--><g class="entity" data-qualified-name="conv.ticker" data-source-line="59" id="ent0012"><rect fill="#161B22" height="44.9819" rx="2.5" ry="2.5" style="stroke:#30363D;stroke-width:1;" width="68.7098" x="389.65" y="725.5699"/><rect fill="#161B22" height="10" style="stroke:#30363D;stroke-width:1;" width="15" x="438.3598" y="730.5699"/><rect fill="#161B22" height="2" style="stroke:#30363D;stroke-width:1;" width="4" x="436.3598" y="732.5699"/><rect fill="#161B22" height="2" style="stroke:#30363D;stroke-width:1;" width="4" x="436.3598" y="736.5699"/><text fill="#C9D1D9" font-family="Verdana" font-size="11" lengthAdjust="spacing" textLength="28.7098" x="404.65" y="757.3288">ticker</text></g><!--entity counter--><g class="entity" data-qualified-name="conv.counter" data-source-line="60" id="ent0013"><rect fill="#161B22" height="44.9819" rx="2.5" ry="2.5" style="stroke:#30363D;stroke-width:1;" width="80.2487" x="326.88" y="833.5599"/><rect fill="#161B22" height="10" style="stroke:#30363D;stroke-width:1;" width="15" x="387.1287" y="838.5599"/><rect fill="#161B22" height="2" style="stroke:#30363D;stroke-width:1;" width="4" x="385.1287" y="840.5599"/><rect fill="#161B22" height="2" style="stroke:#30363D;stroke-width:1;" width="4" x="385.1287" y="844.5599"/><text fill="#C9D1D9" font-family="Verdana" font-size="11" lengthAdjust="spacing" textLength="40.2487" x="341.88" y="865.3188">counter</text></g><!--entity utils--><g class="entity" data-qualified-name="input.utils" data-source-line="69" id="ent0020"><rect fill="#161B22" height="44.9819" rx="2.5" ry="2.5" style="stroke:#30363D;stroke-width:1;" width="61.7139" x="27.14" y="499.6099"/><rect fill="#161B22" height="10" style="stroke:#30363D;stroke-width:1;" width="15" x="68.8539" y="504.6099"/><rect fill="#161B22" height="2" style="stroke:#30363D;stroke-width:1;" width="4" x="66.8539" y="506.6099"/><rect fill="#161B22" height="2" style="stroke:#30363D;stroke-width:1;" width="4" x="66.8539" y="510.6099"/><text fill="#C9D1D9" font-family="Verdana" font-size="11" lengthAdjust="spacing" textLength="21.7139" x="42.14" y="531.3688">utils</text></g><!--entity json_flat--><g class="entity" data-qualified-name="input.json_flat" data-source-line="70" id="ent0021"><rect fill="#161B22" height="44.9819" rx="2.5" ry="2.5" style="stroke:#30363D;stroke-width:1;" width="61.5598" x="45.22" y="619.5899"/><rect fill="#161B22" height="10" style="stroke:#30363D;stroke-width:1;" width="15" x="86.7798" y="624.5899"/><rect fill="#161B22" height="2" style="stroke:#30363D;stroke-width:1;" width="4" x="84.7798" y="626.5899"/><rect fill="#161B22" height="2" style="stroke:#30363D;stroke-width:1;" width="4" x="84.7798" y="630.5899"/><text fill="#C9D1D9" font-family="Verdana" font-size="11" lengthAdjust="spacing" textLength="21.5598" x="60.22" y="651.3488">json</text></g><!--entity json_nested--><g class="entity" data-qualified-name="input.json_nested" data-source-line="71" id="ent0022"><rect fill="#161B22" height="44.9819" rx="2.5" ry="2.5" style="stroke:#30363D;stroke-width:1;" width="97.0016" x="27.5" y="725.5699"/><rect fill="#161B22" height="10" style="stroke:#30363D;stroke-width:1;" width="15" x="104.5016" y="730.5699"/><rect fill="#161B22" height="2" style="stroke:#30363D;stroke-width:1;" width="4" x="102.5016" y="732.5699"/><rect fill="#161B22" height="2" style="stroke:#30363D;stroke-width:1;" width="4" x="102.5016" y="736.5699"/><text fill="#C9D1D9" font-family="Verdana" font-size="11" lengthAdjust="spacing" textLength="57.0016" x="42.5" y="757.3288">json_arrow</text></g><!--entity xlsx--><g class="entity" data-qualified-name="input.xlsx" data-source-line="72" id="ent0023"><rect fill="#161B22" height="44.9819" rx="2.5" ry="2.5" style="stroke:#30363D;stroke-width:1;" width="59.7449" x="56.13" y="833.5599"/><rect fill="#161B22" height="10" style="stroke:#30363D;stroke-width:1;" width="15" x="95.8749" y="838.5599"/><rect fill="#161B22" height="2" style="stroke:#30363D;stroke-width:1;" width="4" x="93.8749" y="840.5599"/><rect fill="#161B22" height="2" style="stroke:#30363D;stroke-width:1;" width="4" x="93.8749" y="844.5599"/><text fill="#C9D1D9" font-family="Verdana" font-size="11" lengthAdjust="spacing" textLength="19.7449" x="71.13" y="865.3188">xlsx</text></g><!--entity schema--><g class="entity" data-qualified-name="analysis.schema" data-source-line="79" id="ent0028"><rect fill="#161B22" height="44.9819" rx="2.5" ry="2.5" style="stroke:#30363D;stroke-width:1;" width="80.0067" x="666" y="499.6099"/><rect fill="#161B22" height="10" style="stroke:#30363D;stroke-width:1;" width="15" x="726.0067" y="504.6099"/><rect fill="#161B22" height="2" style="stroke:#30363D;stroke-width:1;" width="4" x="724.0067" y="506.6099"/><rect fill="#161B22" height="2" style="stroke:#30363D;stroke-width:1;" width="4" x="724.0067" y="510.6099"/><text fill="#C9D1D9" font-family="Verdana" font-size="11" lengthAdjust="spacing" textLength="40.0067" x="681" y="531.3688">schema</text></g><!--entity ad--><g class="entity" data-qualified-name="analysis.ad" data-source-line="80" id="ent0029"><rect fill="#161B22" height="44.9819" rx="2.5" ry="2.5" style="stroke:#30363D;stroke-width:1;" width="80.9637" x="665.52" y="619.5899"/><rect fill="#161B22" height="10" style="stroke:#30363D;stroke-width:1;" width="15" x="726.4837" y="624.5899"/><rect fill="#161B22" height="2" style="stroke:#30363D;stroke-width:1;" width="4" x="724.4837" y="626.5899"/><rect fill="#161B22" height="2" style="stroke:#30363D;stroke-width:1;" width="4" x="724.4837" y="630.5899"/><text fill="#C9D1D9" font-family="Verdana" font-size="11" lengthAdjust="spacing" textLength="40.9637" x="680.52" y="651.3488">analysis</text></g><!--entity types--><g class="entity" data-qualified-name="analysis.types" data-source-line="81" id="ent0030"><rect fill="#161B22" height="44.9819" rx="2.5" ry="2.5" style="stroke:#30363D;stroke-width:1;" width="67.8188" x="673.09" y="725.5699"/><rect fill="#161B22" height="10" style="stroke:#30363D;stroke-width:1;" width="15" x="720.9088" y="730.5699"/><rect fill="#161B22" height="2" style="stroke:#30363D;stroke-width:1;" width="4" x="718.9088" y="732.5699"/><rect fill="#161B22" height="2" style="stroke:#30363D;stroke-width:1;" width="4" x="718.9088" y="736.5699"/><text fill="#C9D1D9" font-family="Verdana" font-size="11" lengthAdjust="spacing" textLength="27.8188" x="688.09" y="757.3288">types</text></g><!--entity builders--><g class="entity" data-qualified-name="analysis.builders" data-source-line="82" id="ent0031"><rect fill="#161B22" height="44.9819" rx="2.5" ry="2.5" style="stroke:#30363D;stroke-width:1;" width="82.0197" x="670.99" y="833.5599"/><rect fill="#161B22" height="10" style="stroke:#30363D;stroke-width:1;" width="15" x="733.0097" y="838.5599"/><rect fill="#161B22" height="2" style="stroke:#30363D;stroke-width:1;" width="4" x="731.0097" y="840.5599"/><rect fill="#161B22" height="2" style="stroke:#30363D;stroke-width:1;" width="4" x="731.0097" y="844.5599"/><text fill="#C9D1D9" font-family="Verdana" font-size="11" lengthAdjust="spacing" textLength="42.0197" x="685.99" y="865.3188">builders</text></g><!--entity convs--><g class="entity" data-qualified-name="analysis.convs" data-source-line="83" id="ent0032"><rect fill="#161B22" height="44.9819" rx="2.5" ry="2.5" style="stroke:#30363D;stroke-width:1;" width="101.8965" x="666.05" y="941.5399"/><rect fill="#161B22" height="10" style="stroke:#30363D;stroke-width:1;" width="15" x="747.9465" y="946.5399"/><rect fill="#161B22" height="2" style="stroke:#30363D;stroke-width:1;" width="4" x="745.9465" y="948.5399"/><rect fill="#161B22" height="2" style="stroke:#30363D;stroke-width:1;" width="4" x="745.9465" y="952.5399"/><text fill="#C9D1D9" font-family="Verdana" font-size="11" lengthAdjust="spacing" textLength="61.8965" x="681.05" y="973.2988">conversions</text></g><!--entity ed--><g class="entity" data-qualified-name="export.ed" data-source-line="91" id="ent0038"><rect fill="#161B22" height="44.9819" rx="2.5" ry="2.5" style="stroke:#30363D;stroke-width:1;" width="73.9568" x="845.02" y="233.6499"/><rect fill="#161B22" height="10" style="stroke:#30363D;stroke-width:1;" width="15" x="898.9768" y="238.6499"/><rect fill="#161B22" height="2" style="stroke:#30363D;stroke-width:1;" width="4" x="896.9768" y="240.6499"/><rect fill="#161B22" height="2" style="stroke:#30363D;stroke-width:1;" width="4" x="896.9768" y="244.6499"/><text fill="#C9D1D9" font-family="Verdana" font-size="11" lengthAdjust="spacing" textLength="33.9568" x="860.02" y="265.4088">export</text></g><!--entity to_csv--><g class="entity" data-qualified-name="export.to_csv" data-source-line="92" id="ent0039"><rect fill="#161B22" height="44.9819" rx="2.5" ry="2.5" style="stroke:#30363D;stroke-width:1;" width="71.6468" x="898.18" y="353.6299"/><rect fill="#161B22" height="10" style="stroke:#30363D;stroke-width:1;" width="15" x="949.8268" y="358.6299"/><rect fill="#161B22" height="2" style="stroke:#30363D;stroke-width:1;" width="4" x="947.8268" y="360.6299"/><rect fill="#161B22" height="2" style="stroke:#30363D;stroke-width:1;" width="4" x="947.8268" y="364.6299"/><text fill="#C9D1D9" font-family="Verdana" font-size="11" lengthAdjust="spacing" textLength="31.6468" x="913.18" y="385.3888">to_csv</text></g><!--entity to_json--><g class="entity" data-qualified-name="export.to_json" data-source-line="93" id="ent0040"><rect fill="#161B22" height="44.9819" rx="2.5" ry="2.5" style="stroke:#30363D;stroke-width:1;" width="77.0697" x="877.47" y="499.6099"/><rect fill="#161B22" height="10" style="stroke:#30363D;stroke-width:1;" width="15" x="934.5397" y="504.6099"/><rect fill="#161B22" height="2" style="stroke:#30363D;stroke-width:1;" width="4" x="932.5397" y="506.6099"/><rect fill="#161B22" height="2" style="stroke:#30363D;stroke-width:1;" width="4" x="932.5397" y="510.6099"/><text fill="#C9D1D9" font-family="Verdana" font-size="11" lengthAdjust="spacing" textLength="37.0697" x="892.47" y="531.3688">to_json</text></g><!--entity to_jsonl--><g class="entity" data-qualified-name="export.to_jsonl" data-source-line="94" id="ent0041"><rect fill="#161B22" height="44.9819" rx="2.5" ry="2.5" style="stroke:#30363D;stroke-width:1;" width="79.9077" x="876.05" y="619.5899"/><rect fill="#161B22" height="10" style="stroke:#30363D;stroke-width:1;" width="15" x="935.9577" y="624.5899"/><rect fill="#161B22" height="2" style="stroke:#30363D;stroke-width:1;" width="4" x="933.9577" y="626.5899"/><rect fill="#161B22" height="2" style="stroke:#30363D;stroke-width:1;" width="4" x="933.9577" y="630.5899"/><text fill="#C9D1D9" font-family="Verdana" font-size="11" lengthAdjust="spacing" textLength="39.9077" x="891.05" y="651.3488">to_jsonl</text></g><!--entity to_xlsx--><g class="entity" data-qualified-name="export.to_xlsx" data-source-line="95" id="ent0042"><rect fill="#161B22" height="44.9819" rx="2.5" ry="2.5" style="stroke:#30363D;stroke-width:1;" width="75.2547" x="851.37" y="725.5699"/><rect fill="#161B22" height="10" style="stroke:#30363D;stroke-width:1;" width="15" x="906.6247" y="730.5699"/><rect fill="#161B22" height="2" style="stroke:#30363D;stroke-width:1;" width="4" x="904.6247" y="732.5699"/><rect fill="#161B22" height="2" style="stroke:#30363D;stroke-width:1;" width="4" x="904.6247" y="736.5699"/><text fill="#C9D1D9" font-family="Verdana" font-size="11" lengthAdjust="spacing" textLength="35.2547" x="866.37" y="757.3288">to_xlsx</text></g><!--link main to tui--><!--link main to tui--><g class="link" data-entity-1="ent0002" data-entity-2="ent0003" data-link-type="dependency" data-source-line="105" id="lnk48"><path d="M141.95,135.0699 C131.72,143.4299 120.95,153.6299 113,164.6499 C97.81,185.7099 88.9974,209.131 83.2074,228.421" fill="none" id="main-to-tui-1" style="stroke:#58A6FF;stroke-width:1;"/><polygon fill="#58A6FF" points="81.77,233.2099,88.1885,225.7398,83.2074,228.421,80.5262,223.4399,81.77,233.2099" style="stroke:#58A6FF;stroke-width:1;stroke-linejoin:miter;stroke-miterlimit:10;"/><text fill="#8B949E" font-family="Verdana" font-size="10" lengthAdjust="spacing" textLength="49.46" x="114" y="176.3399">interactive</text></g><!--link tui to inspect--><!--link orchestrator to block_producer--><!--link orchestrator to block_producer--><g class="link" data-entity-1="ent0008" data-entity-2="ent0009" data-link-type="dependency" data-source-line="108" id="lnk50"><path d="M418.29,279.0499 C408.19,287.7199 397.03,298.1099 388,308.6299 C376.09,322.4999 367.4868,335.6012 359.5268,349.1212" fill="none" id="orchestrator-to-block_producer-1" style="stroke:#58A6FF;stroke-width:1;"/><polygon fill="#58A6FF" points="356.99,353.4299,365.0031,347.7037,359.5268,349.1212,358.1092,343.6448,356.99,353.4299" style="stroke:#58A6FF;stroke-width:1;stroke-linejoin:miter;stroke-miterlimit:10;"/><text fill="#8B949E" font-family="Verdana" font-size="10" lengthAdjust="spacing" textLength="29.71" x="389" y="320.3199">blocks</text></g><!--link block_producer to pipeline--><!--link pipeline to writer--><!--link writer to ticker--><!--link ticker to counter--><!--link utils to json_flat--><!--link json_flat to json_nested--><!--link json_nested to xlsx--><!--link schema to ad--><!--link ad to types--><!--link types to builders--><!--link builders to convs--><!--link ed to to_csv--><!--link ed to to_csv--><g class="link" data-entity-1="ent0038" data-entity-2="ent0039" data-link-type="dependency" data-source-line="123" id="lnk62"><path d="M902.14,279.0499 C915.01,300.2399 927.764,327.3462 933.534,348.4962" fill="none" id="ed-to-to_csv-1" style="stroke:#58A6FF;stroke-width:1;"/><polygon fill="#58A6FF" points="934.85,353.3199,936.3402,343.5844,933.534,348.4962,928.6223,345.69,934.85,353.3199" style="stroke:#58A6FF;stroke-width:1;stroke-linejoin:miter;stroke-miterlimit:10;"/></g><!--link to_csv to to_json--><!--link to_json to to_jsonl--><!--link to_jsonl to to_xlsx--><!--link main to orchestrator--><g class="link" data-entity-1="ent0002" data-entity-2="ent0008" data-link-type="dependency" data-source-line="104" id="lnk47"><path d="M206.48,130.5699 C259.44,158.1099 357.444,209.0829 409.514,236.1629" fill="none" id="main-to-orchestrator" style="stroke:#58A6FF;stroke-width:1;"/><polygon fill="#58A6FF" points="413.95,238.4699,407.8109,230.7685,409.514,236.1629,404.1197,237.8661,413.95,238.4699" style="stroke:#58A6FF;stroke-width:1;stroke-linejoin:miter;stroke-miterlimit:10;"/><text fill="#8B949E" font-family="Verdana" font-size="10" lengthAdjust="spacing" textLength="39.87" x="294.15" y="176.3399">dispatch</text></g><!--link main to inspect--><g class="link" data-entity-1="ent0002" data-entity-2="ent0004" data-link-type="dependency" data-source-line="106" id="lnk49"><path d="M171.97,135.0799 C171.21,148.0699 169.95,164.8399 168,179.6499 C159.63,243.1699 145.0436,312.3887 137.0536,348.3787" fill="none" id="main-to-inspect" style="stroke:#58A6FF;stroke-width:1;"/><polygon fill="#58A6FF" points="135.97,353.2599,141.8255,345.3407,137.0536,348.3787,134.0156,343.6069,135.97,353.2599" style="stroke:#58A6FF;stroke-width:1;stroke-linejoin:miter;stroke-miterlimit:10;"/><text fill="#8B949E" font-family="Verdana" font-size="10" lengthAdjust="spacing" textLength="67.19" x="167.8" y="260.3299">--view-schema</text></g><!--link orchestrator to pipeline--><g class="link" data-entity-1="ent0008" data-entity-2="ent0010" data-link-type="dependency" data-source-line="109" id="lnk51"><path d="M460.33,279.1299 C465.44,287.9599 470.74,298.4499 474,308.6299 C492.7,366.9499 501.53,385.6599 489,445.6099 C485.05,464.5099 478.3901,480.0303 470.8001,494.6803" fill="none" id="orchestrator-to-pipeline" style="stroke:#58A6FF;stroke-width:1;"/><polygon fill="#58A6FF" points="468.5,499.1199,476.1918,492.9688,470.8001,494.6803,469.0885,489.2886,468.5,499.1199" style="stroke:#58A6FF;stroke-width:1;stroke-linejoin:miter;stroke-miterlimit:10;"/><text fill="#8B949E" font-family="Verdana" font-size="10" lengthAdjust="spacing" textLength="35.42" x="495.84" y="380.3099">analyze</text></g><!--link orchestrator to writer--><g class="link" data-entity-1="ent0008" data-entity-2="ent0011" data-link-type="dependency" data-source-line="110" id="lnk52"><path d="M450.2,278.9599 C455.44,312.0799 461.03,376.0899 437,422.6099 C426.84,442.2799 407.62,433.6699 398,453.6099 C380.43,490.0299 392.69,504.5099 398,544.5899 C401.46,570.7399 408.4202,595.0994 414.7702,614.4394" fill="none" id="orchestrator-to-writer" style="stroke:#58A6FF;stroke-width:1;"/><polygon fill="#58A6FF" points="416.33,619.1899,417.3228,609.3912,414.7702,614.4394,409.7221,611.8868,416.33,619.1899" style="stroke:#58A6FF;stroke-width:1;stroke-linejoin:miter;stroke-miterlimit:10;"/><text fill="#8B949E" font-family="Verdana" font-size="10" lengthAdjust="spacing" textLength="23.82" x="431.86" y="442.2999">write</text></g><!--link orchestrator to ticker--><g class="link" data-entity-1="ent0008" data-entity-2="ent0012" data-link-type="dependency" data-source-line="111" id="lnk53"><path d="M477.41,278.8299 C499.55,296.1699 527.4,322.6499 540,353.6299 C551.55,382.0299 543.21,392.1199 540,422.6099 C528.35,533.1199 523.84,563.7999 477,664.5699 C466.88,686.3399 454.7316,705.078 443.2516,721.188" fill="none" id="orchestrator-to-ticker" style="stroke:#58A6FF;stroke-width:1;"/><polygon fill="#58A6FF" points="440.35,725.2599,448.8305,720.2518,443.2516,721.188,442.3154,715.6091,440.35,725.2599" style="stroke:#58A6FF;stroke-width:1;stroke-linejoin:miter;stroke-miterlimit:10;"/><text fill="#8B949E" font-family="Verdana" font-size="10" lengthAdjust="spacing" textLength="41.8299" x="537.48" y="526.2899">progress</text></g><!--link orchestrator to counter--><g class="link" data-entity-1="ent0008" data-entity-2="ent0013" data-link-type="dependency" data-source-line="112" id="lnk54"><path d="M443.25,278.9899 C437.95,318.4499 425.37,399.6599 409,422.6099 C405.06,428.1299 400.86,425.8799 396,430.6099 C387.26,439.1299 386.17,442.5599 381,453.6099 C355.9,507.2799 342,521.8399 342,581.0899 C342,581.0899 342,581.0899 342,749.0699 C342,778.7499 349.7754,807.1512 357.0554,828.3412" fill="none" id="orchestrator-to-counter" style="stroke:#58A6FF;stroke-width:1;"/><polygon fill="#58A6FF" points="358.68,833.0699,359.5387,823.2585,357.0554,828.3412,351.9728,825.8579,358.68,833.0699" style="stroke:#58A6FF;stroke-width:1;stroke-linejoin:miter;stroke-miterlimit:10;"/><text fill="#8B949E" font-family="Verdana" font-size="10" lengthAdjust="spacing" textLength="36.86" x="343.06" y="586.2799">validate</text></g><!--link orchestrator to schema--><g class="link" data-entity-1="ent0008" data-entity-2="ent0028" data-link-type="dependency" data-source-line="114" id="lnk55"><path d="M478.21,258.6699 C516.1,262.1299 578.79,273.2199 618,308.6299 C675.63,360.6799 695.7203,451.3395 702.4103,494.2795" fill="none" id="orchestrator-to-schema" style="stroke:#58A6FF;stroke-width:1;"/><polygon fill="#58A6FF" points="703.18,499.2199,705.7468,489.7114,702.4103,494.2795,697.8422,490.9429,703.18,499.2199" style="stroke:#58A6FF;stroke-width:1;stroke-linejoin:miter;stroke-miterlimit:10;"/><text fill="#8B949E" font-family="Verdana" font-size="10" lengthAdjust="spacing" textLength="45.07" x="685.92" y="380.3099">infer type</text></g><!--link pipeline to ad--><g class="link" data-entity-1="ent0010" data-entity-2="ent0029" data-link-type="dependency" data-source-line="115" id="lnk56"><path d="M497,542.4499 C543.55,564.4199 614.4883,597.8958 660.8683,619.7858" fill="none" id="pipeline-to-ad" style="stroke:#58A6FF;stroke-width:1;"/><polygon fill="#58A6FF" points="665.39,621.9199,658.9583,614.4612,660.8683,619.7858,655.5437,621.6959,665.39,621.9199" style="stroke:#58A6FF;stroke-width:1;stroke-linejoin:miter;stroke-miterlimit:10;"/><text fill="#8B949E" font-family="Verdana" font-size="10" lengthAdjust="spacing" textLength="32.57" x="596.97" y="586.2799">per-col</text></g><!--link block_producer to utils--><g class="link" data-entity-1="ent0009" data-entity-2="ent0020" data-link-type="dependency" data-source-line="117" id="lnk57"><path d="M311.27,399.0499 C295.69,408.0299 276.57,417.4899 258,422.6099 C227.53,431.0099 143.29,414.6699 116,430.6099 C90.06,445.7599 75.6294,472.9966 67.1494,494.5666" fill="none" id="block_producer-to-utils" style="stroke:#58A6FF;stroke-width:1;"/><polygon fill="#58A6FF" points="65.32,499.2199,72.3356,492.3075,67.1494,494.5666,64.8903,489.3804,65.32,499.2199" style="stroke:#58A6FF;stroke-width:1;stroke-linejoin:miter;stroke-miterlimit:10;"/></g><!--link block_producer to json_flat--><g class="link" data-entity-1="ent0009" data-entity-2="ent0021" data-link-type="dependency" data-source-line="118" id="lnk58"><path d="M310.3,399.0399 C294.85,407.7899 276.09,417.0699 258,422.6099 C227.63,431.8999 213.23,412.7099 187,430.6099 C152.71,454.0099 105.6845,565.7726 86.2645,614.7026" fill="none" id="block_producer-to-json_flat" style="stroke:#58A6FF;stroke-width:1;"/><polygon fill="#58A6FF" points="84.42,619.3499,91.458,612.4603,86.2645,614.7026,84.0222,609.5091,84.42,619.3499" style="stroke:#58A6FF;stroke-width:1;stroke-linejoin:miter;stroke-miterlimit:10;"/></g><!--link block_producer to json_nested--><g class="link" data-entity-1="ent0009" data-entity-2="ent0022" data-link-type="dependency" data-source-line="119" id="lnk59"><path d="M299.86,399.0999 C285.36,407.5899 269.97,418.2599 258,430.6099 C174.6,516.6499 183.91,560.7999 124,664.5699 C112.07,685.2399 100.8903,704.4416 91.1903,721.0616" fill="none" id="block_producer-to-json_nested" style="stroke:#58A6FF;stroke-width:1;"/><polygon fill="#58A6FF" points="88.67,725.3799,96.6612,719.6232,91.1903,721.0616,89.7519,715.5906,88.67,725.3799" style="stroke:#58A6FF;stroke-width:1;stroke-linejoin:miter;stroke-miterlimit:10;"/></g><!--link block_producer to xlsx--><g class="link" data-entity-1="ent0009" data-entity-2="ent0023" data-link-type="dependency" data-source-line="120" id="lnk60"><path d="M329.29,398.8499 C311.22,426.0299 284,474.6799 284,521.0999 C284,521.0999 284,521.0999 284,749.0699 C284,824.3199 176.4282,845.7766 121.0382,852.0566" fill="none" id="block_producer-to-xlsx" style="stroke:#58A6FF;stroke-width:1;"/><polygon fill="#58A6FF" points="116.07,852.6199,125.4633,855.5805,121.0382,852.0566,124.5621,847.6315,116.07,852.6199" style="stroke:#58A6FF;stroke-width:1;stroke-linejoin:miter;stroke-miterlimit:10;"/></g><!--link main to ed--><g class="link" data-entity-1="ent0002" data-entity-2="ent0038" data-link-type="dependency" data-source-line="122" id="lnk61"><path d="M206.45,117.5499 C281.78,127.6799 470.31,154.3999 626,187.6499 C704.44,204.3999 790.0877,228.2778 839.7277,242.6678" fill="none" id="main-to-ed" style="stroke:#58A6FF;stroke-width:1;"/><polygon fill="#58A6FF" points="844.53,244.0599,836.9996,237.7122,839.7277,242.6678,834.7722,245.3959,844.53,244.0599" style="stroke:#58A6FF;stroke-width:1;stroke-linejoin:miter;stroke-miterlimit:10;"/><text fill="#8B949E" font-family="Verdana" font-size="10" lengthAdjust="spacing" textLength="24.83" x="578.23" y="176.3399">--to-*</text></g><!--link ed to to_json--><g class="link" data-entity-1="ent0038" data-entity-2="ent0040" data-link-type="dependency" data-source-line="124" id="lnk63"><path d="M879.44,279.0199 C876.26,310.8899 872.24,371.7899 881,422.6099 C885.72,449.9699 895.2991,475.2277 903.8491,494.8077" fill="none" id="ed-to-to_json" style="stroke:#58A6FF;stroke-width:1;"/><polygon fill="#58A6FF" points="905.85,499.3899,905.9141,489.5412,903.8491,494.8077,898.5826,492.7427,905.85,499.3899" style="stroke:#58A6FF;stroke-width:1;stroke-linejoin:miter;stroke-miterlimit:10;"/></g><!--link ed to to_jsonl--><g class="link" data-entity-1="ent0038" data-entity-2="ent0041" data-link-type="dependency" data-source-line="125" id="lnk64"><path d="M918.55,279.0699 C942.97,296.0099 973.06,321.8899 987,353.6299 C1001.83,387.3899 974.67,536.6299 972,544.5899 C962.75,572.1299 947.9578,596.4201 934.9378,615.2101" fill="none" id="ed-to-to_jsonl" style="stroke:#58A6FF;stroke-width:1;"/><polygon fill="#58A6FF" points="932.09,619.3199,940.5038,614.2005,934.9378,615.2101,933.9281,609.6441,932.09,619.3199" style="stroke:#58A6FF;stroke-width:1;stroke-linejoin:miter;stroke-miterlimit:10;"/></g><!--link ed to to_xlsx--><g class="link" data-entity-1="ent0038" data-entity-2="ent0042" data-link-type="dependency" data-source-line="126" id="lnk65"><path d="M863.96,279.1099 C847.27,301.7399 825,338.7199 825,375.1199 C825,375.1199 825,375.1199 825,643.0799 C825,675.0899 843.8589,701.8641 862.1189,721.4341" fill="none" id="ed-to-to_xlsx" style="stroke:#58A6FF;stroke-width:1;"/><polygon fill="#58A6FF" points="865.53,725.0899,862.3147,715.7807,862.1189,721.4341,856.4655,721.2384,865.53,725.0899" style="stroke:#58A6FF;stroke-width:1;stroke-linejoin:miter;stroke-miterlimit:10;"/></g><g class="legend" data-source-line="39"><rect fill="none" height="22.2581" rx="7.5" ry="7.5" style="stroke:#000000;stroke-width:1;" width="94.8526" x="931.1474" y="1016.5199"/><text fill="#8B949E" font-family="Verdana" font-size="9" lengthAdjust="spacing" textLength="84.8526" x="936.1474" y="1031.141">Rust &#183; Arrow &#183; Rayon</text></g><?plantuml-src fLNDRXit4BxlKx3geO008LuvTIp35f2cBH2WXo19JuOXKEH8OasHMv8hsoa2z27wBhtdKVea7GwvsgKa0_svs1-_-NP-ECFHLs43Ms2DvifK_bwPXZk-PKikxjVEjaQ-iTewzlMPhElwrK0XxBQn1anWlrMCVNUeho_gvNGQBTP9S9azFpk_E9V8_cXDo9oOoLhEClT1VG9MrzNdGIJkd7sWAFcBRo_vnMfLUhbSpbxEeF1oLdXn808tQmsdyytr_VDyXxuRzCRNy7zlOb_3EowbCcjsMKGnLZuJObfFBwRoFoPlR7WkSu6EB_z5vYVkvACA6bvhjJRRE2iQLc4Wah3YhGuVuJ7q6e5_m5LLY9-oQn53NENCvzSUUtjLlvoFnyBl9i5EqDElBGJsr-z_iDTER5J0JhSEnkFh5r4yltv1BkQLXZKOoPnQRmBcttbEoMVFi_dxrWVsvK_q5SSEmNl-PCsXBtIKt5NLD-pcvWPlmmbWEt112QwP3rX_xE632XjbkklmKOjV_Eo1tMwKb63kqe1x5YmJ3ZXs0sEqM-EhgXkiqPkVteuOzqnebTlzFVNiTellzYvQ8eX4Q1MTyNyyAkCRl0-YCaOwYjcaIs0opshyMx3T1v-7cLW7AHLhTWUvM4bny2Osu8FZmRh8OwCMIst5lISpmKNZh6m5aA1H3MXbWCpT8HeU77RJ4PqWLQZ4VIOJf1WujvqqOwI7cHIL7ULG4eLsa5072_i-imJAU-qIJA2mTMaER_UjQTemIir2LDvl6vHELqWeKhzuczeVmMAbUUZO1KrLRpDu3n2VxUsZze_4Hu04EIio6phRusF5tkNWLAWemB2y3zYEBQVwkE7woIjVbkX9GDab6CbEIZId6i9J0-bCA5BBLcdSKdd6yY6DXi5dwPKr_guRt6X80Og4oJalY-W2qFzoYFeW7JneS0mqhF-7nyQwr5yWM5QVE4eojIhO1JwUL2V1JExRdl60raDUPyE-vHaZVT2glVi43cqvI4QdhBetwqDxDmTfKph0QOhTsAWcxSCgxICK5m_sYesayWqFOZFg9N59eKN5jyD5K3iO6FF6YeB9PAVWOPAwFAggSXSSxO3uILfIesFf_jsZYARn4vnGvVUF6a8d57aBe0B3hXtuKy7oNeYg7TTAykZgM9R7bwvYXV8udwEgtr0qpXGAt0H_KT37uP93ITea9mpz3dZEc9__2JFrksyAoDGF_B4UZweuUFt0zISQiVAe1sVo-JS0?></g></svg>