<svg xmlns="http://www.w3.org/2000/svg" xmlns:xlink="http://www.w3.org/1999/xlink" contentStyleType="text/css" data-diagram-type="SEQUENCE" height="1053px" preserveAspectRatio="none" style="width:937px;height:1053px;background:#0D1117;" version="1.1" viewBox="0 0 937 1053" width="937px" zoomAndPan="magnify"><?plantuml $version$?><defs/><g><rect fill="#0D1117" height="1053" style="stroke:none;stroke-width:1;" width="937" x="0" y="0"/><g class="title" data-source-line="27"><text fill="#C9D1D9" font-family="Verdana" font-size="16" font-weight="700" lengthAdjust="spacing" textLength="222.0484" x="356.741" y="32.104">Parallel Conversion Pipeline</text></g><g class="participant-lifeline" data-entity-uid="part1" data-qualified-name="Input" data-source-line="29" id="part1-lifeline"><g><title>Input</title><rect fill="#000000" fill-opacity="0.00000" height="839.2384" width="8" x="26.8569" y="127.86"/><line style="stroke:#000000;stroke-width:1;stroke-dasharray:5,5;" x1="30" x2="30" y1="127.86" y2="967.0983"/></g></g><g class="participant-lifeline" data-entity-uid="part2" data-qualified-name="schema" data-source-line="30" id="part2-lifeline"><g><title>Schema</title><rect fill="#000000" fill-opacity="0.00000" height="839.2384" width="8" x="154.571" y="127.86"/><line style="stroke:#000000;stroke-width:1;stroke-dasharray:5,5;" x1="157.6221" x2="157.6221" y1="127.86" y2="967.0983"/></g></g><g class="participant-lifeline" data-entity-uid="part3" data-qualified-name="channel" data-source-line="31" id="part3-lifeline"><g><title>Channel</title><rect fill="#000000" fill-opacity="0.00000" height="839.2384" width="8" x="280.9041" y="127.86"/><line style="stroke:#000000;stroke-width:1;stroke-dasharray:5,5;" x1="284.8212" x2="284.8212" y1="127.86" y2="967.0983"/></g></g><g class="participant-lifeline" data-entity-uid="part4" data-qualified-name="producer" data-source-line="32" id="part4-lifeline"><g><title>Producer</title><rect fill="#000000" fill-opacity="0.00000" height="839.2384" width="8" x="410.3342" y="127.86"/><line style="stroke:#000000;stroke-width:1;stroke-dasharray:5,5;" x1="413.9884" x2="413.9884" y1="127.86" y2="967.0983"/></g></g><g class="participant-lifeline" data-entity-uid="part5" data-qualified-name="workers" data-source-line="33" id="part5-lifeline"><g><title>Rayon</title><rect fill="#000000" fill-opacity="0.00000" height="839.2384" width="8" x="516.246" y="127.86"/><line style="stroke:#000000;stroke-width:1;stroke-dasharray:5,5;" x1="519.6801" x2="519.6801" y1="127.86" y2="967.0983"/></g></g><g class="participant-lifeline" data-entity-uid="part6" data-qualified-name="writer" data-source-line="34" id="part6-lifeline"><g><title>Writer</title><rect fill="#000000" fill-opacity="0.00000" height="839.2384" width="8" x="658.5331" y="127.86"/><line style="stroke:#000000;stroke-width:1;stroke-dasharray:5,5;" x1="662.5232" x2="662.5232" y1="127.86" y2="967.0983"/></g></g><g class="participant-lifeline" data-entity-uid="part7" data-qualified-name="Output" data-source-line="35" id="part7-lifeline"><g><title>Output</title><rect fill="#000000" fill-opacity="0.00000" height="839.2384" width="8" x="807.7752" y="127.86"/><line style="stroke:#000000;stroke-width:1;stroke-dasharray:5,5;" x1="811.2973" x2="811.2973" y1="127.86" y2="967.0983"/></g></g><g class="participant participant-head" data-entity-uid="part1" data-qualified-name="Input" data-source-line="29" id="part1-head"><text fill="#C9D1D9" font-family="Verdana" font-size="14" lengthAdjust="spacing" textLength="35.7139" x="10" y="123.758">Input</text><ellipse cx="30.8569" cy="56.792" fill="#3FB950" rx="8" ry="8" style="stroke:#58A6FF;stroke-width:1;"/><path d="M30.8569,64.792 L30.8569,91.792 M17.8569,72.792 L43.8569,72.792 M30.8569,91.792 L17.8569,106.792 M30.8569,91.792 L43.8569,106.792" fill="none" style="stroke:#58A6FF;stroke-width:1;"/></g><g class="participant participant-tail" data-entity-uid="part1" data-qualified-name="Input" data-source-line="29" id="part1-tail"><text fill="#C9D1D9" font-family="Verdana" font-size="14" lengthAdjust="spacing" textLength="35.7139" x="10" y="981.0643">Input</text><ellipse cx="30.8569" cy="994.1663" fill="#3FB950" rx="8" ry="8" style="stroke:#58A6FF;stroke-width:1;"/><path d="M30.8569,1002.1663 L30.8569,1029.1663 M17.8569,1010.1663 L43.8569,1010.1663 M30.8569,1029.1663 L17.8569,1044.1663 M30.8569,1029.1663 L43.8569,1044.1663" fill="none" style="stroke:#58A6FF;stroke-width:1;"/></g><g class="participant participant-head" data-entity-uid="part2" data-qualified-name="schema" data-source-line="30" id="part2-head"><rect fill="#1F6FEB" height="29.0679" rx="2.5" ry="2.5" style="stroke:#30363D;stroke-width:1;" width="61.8978" x="127.6221" y="92.792"/><text fill="#C9D1D9" font-family="Verdana" font-size="14" lengthAdjust="spacing" textLength="51.8978" x="132.6221" y="112.758">Schema</text></g><g class="participant participant-tail" data-entity-uid="part2" data-qualified-name="schema" data-source-line="30" id="part2-tail"><rect fill="#1F6FEB" height="29.0679" rx="2.5" ry="2.5" style="stroke:#30363D;stroke-width:1;" width="61.8978" x="127.6221" y="971.0983"/><text fill="#C9D1D9" font-family="Verdana" font-size="14" lengthAdjust="spacing" textLength="51.8978" x="132.6221" y="991.0643">Schema</text></g><g class="participant participant-head" data-entity-uid="part3" data-qualified-name="channel" data-source-line="31" id="part3-head"><path d="M252.8212,79.7241 L316.987,79.7241 C321.987,79.7241 321.987,103.792 321.987,103.792 C321.987,103.792 321.987,127.86 316.987,127.86 L252.8212,127.86 C247.8212,127.86 247.8212,103.792 247.8212,103.792 C247.8212,103.792 247.8212,79.7241 252.8212,79.7241" fill="#0D1117" style="stroke:#58A6FF;stroke-width:1;"/><path d="M316.987,79.7241 C311.987,79.7241 311.987,103.792 311.987,103.792 C311.987,127.86 316.987,127.86 316.987,127.86" fill="none" style="stroke:#58A6FF;stroke-width:1;"/><text fill="#58A6FF" font-family="Verdana" font-size="14" lengthAdjust="spacing" textLength="54.1658" x="252.8212" y="99.6901">Channel</text><text fill="#58A6FF" font-family="Verdana" font-size="14" lengthAdjust="spacing" textLength="43.2318" x="258.2882" y="118.758">(cap 8)</text></g><g class="participant participant-tail" data-entity-uid="part3" data-qualified-name="channel" data-source-line="31" id="part3-tail"><path d="M252.8212,966.0983 L316.987,966.0983 C321.987,966.0983 321.987,990.1663 321.987,990.1663 C321.987,990.1663 321.987,1014.2342 316.987,1014.2342 L252.8212,1014.2342 C247.8212,1014.2342 247.8212,990.1663 247.8212,990.1663 C247.8212,990.1663 247.8212,966.0983 252.8212,966.0983" fill="#0D1117" style="stroke:#58A6FF;stroke-width:1;"/><path d="M316.987,966.0983 C311.987,966.0983 311.987,990.1663 311.987,990.1663 C311.987,1014.2342 316.987,1014.2342 316.987,1014.2342" fill="none" style="stroke:#58A6FF;stroke-width:1;"/><text fill="#58A6FF" font-family="Verdana" font-size="14" lengthAdjust="spacing" textLength="54.1658" x="252.8212" y="986.0643">Channel</text><text fill="#58A6FF" font-family="Verdana" font-size="14" lengthAdjust="spacing" textLength="43.2318" x="258.2882" y="1005.1322">(cap 8)</text></g><g class="participant participant-head" data-entity-uid="part4" data-qualified-name="producer" data-source-line="32" id="part4-head"><rect fill="#D29922" height="48.1358" rx="2.5" ry="2.5" style="stroke:#30363D;stroke-width:1;" width="86.6917" x="370.9884" y="73.7241"/><text fill="#C9D1D9" font-family="Verdana" font-size="14" lengthAdjust="spacing" textLength="60.3818" x="384.1433" y="93.6901">Producer</text><text fill="#C9D1D9" font-family="Verdana" font-size="14" lengthAdjust="spacing" textLength="76.6917" x="375.9884" y="112.758">(100K rows)</text></g><g class="participant participant-tail" data-entity-uid="part4" data-qualified-name="producer" data-source-line="32" id="part4-tail"><rect fill="#D29922" height="48.1358" rx="2.5" ry="2.5" style="stroke:#30363D;stroke-width:1;" width="86.6917" x="370.9884" y="971.0983"/><text fill="#C9D1D9" font-family="Verdana" font-size="14" lengthAdjust="spacing" textLength="60.3818" x="384.1433" y="991.0643">Producer</text><text fill="#C9D1D9" font-family="Verdana" font-size="14" lengthAdjust="spacing" textLength="76.6917" x="375.9884" y="1010.1322">(100K rows)</text></g><g class="participant participant-head" data-entity-uid="part5" data-qualified-name="workers" data-source-line="33" id="part5-head"><rect fill="#79C0FF" height="48.1358" rx="2.5" ry="2.5" style="stroke:#30363D;stroke-width:1;" width="65.1318" x="487.6801" y="73.7241"/><text fill="#C9D1D9" font-family="Verdana" font-size="14" lengthAdjust="spacing" textLength="40.8238" x="499.834" y="93.6901">Rayon</text><text fill="#C9D1D9" font-family="Verdana" font-size="14" lengthAdjust="spacing" textLength="55.1318" x="492.6801" y="112.758">Workers</text></g><g class="participant participant-tail" data-entity-uid="part5" data-qualified-name="workers" data-source-line="33" id="part5-tail"><rect fill="#79C0FF" height="48.1358" rx="2.5" ry="2.5" style="stroke:#30363D;stroke-width:1;" width="65.1318" x="487.6801" y="971.0983"/><text fill="#C9D1D9" font-family="Verdana" font-size="14" lengthAdjust="spacing" textLength="40.8238" x="499.834" y="991.0643">Rayon</text><text fill="#C9D1D9" font-family="Verdana" font-size="14" lengthAdjust="spacing" textLength="55.1318" x="492.6801" y="1010.1322">Workers</text></g><g class="participant participant-head" data-entity-uid="part6" data-qualified-name="writer" data-source-line="34" id="part6-head"><rect fill="#3FB950" height="48.1358" rx="2.5" ry="2.5" style="stroke:#30363D;stroke-width:1;" width="86.0197" x="619.5232" y="73.7241"/><text fill="#C9D1D9" font-family="Verdana" font-size="14" lengthAdjust="spacing" textLength="41.1458" x="641.9602" y="93.6901">Writer</text><text fill="#C9D1D9" font-family="Verdana" font-size="14" lengthAdjust="spacing" textLength="76.0197" x="624.5232" y="112.758">(BTreeMap)</text></g><g class="participant participant-tail" data-entity-uid="part6" data-qualified-name="writer" data-source-line="34" id="part6-tail"><rect fill="#3FB950" height="48.1358" rx="2.5" ry="2.5" style="stroke:#30363D;stroke-width:1;" width="86.0197" x="619.5232" y="971.0983"/><text fill="#C9D1D9" font-family="Verdana" font-size="14" lengthAdjust="spacing" textLength="41.1458" x="641.9602" y="991.0643">Writer</text><text fill="#C9D1D9" font-family="Verdana" font-size="14" lengthAdjust="spacing" textLength="76.0197" x="624.5232" y="1010.1322">(BTreeMap)</text></g><g class="participant participant-head" data-entity-uid="part7" data-qualified-name="Output" data-source-line="35" id="part7-head"><text fill="#C9D1D9" font-family="Verdana" font-size="14" lengthAdjust="spacing" textLength="46.9558" x="785.2973" y="123.758">Output</text><ellipse cx="811.7752" cy="56.792" fill="#F78166" rx="8" ry="8" style="stroke:#58A6FF;stroke-width:1;"/><path d="M811.7752,64.792 L811.7752,91.792 M798.7752,72.792 L824.7752,72.792 M811.7752,91.792 L798.7752,106.792 M811.7752,91.792 L824.7752,106.792" fill="none" style="stroke:#58A6FF;stroke-width:1;"/></g><g class="participant participant-tail" data-entity-uid="part7" data-qualified-name="Output" data-source-line="35" id="part7-tail"><text fill="#C9D1D9" font-family="Verdana" font-size="14" lengthAdjust="spacing" textLength="46.9558" x="785.2973" y="981.0643">Output</text><ellipse cx="811.7752" cy="994.1663" fill="#F78166" rx="8" ry="8" style="stroke:#58A6FF;stroke-width:1;"/><path d="M811.7752,1002.1663 L811.7752,1029.1663 M798.7752,1010.1663 L824.7752,1010.1663 M811.7752,1029.1663 L798.7752,1044.1663 M811.7752,1029.1663 L824.7752,1044.1663" fill="none" style="stroke:#58A6FF;stroke-width:1;"/></g><rect fill="#FFFFFF" height="3" style="stroke:#FFFFFF;stroke-width:1;" width="926.5303" x="5" y="159.713"/><line style="stroke:#000000;stroke-width:0.5;" x1="5" x2="931.5303" y1="159.713" y2="159.713"/><line style="stroke:#000000;stroke-width:0.5;" x1="5" x2="931.5303" y1="162.713" y2="162.713"/><rect fill="#FFFFFF" height="25.706" style="stroke:#000000;stroke-width:1;" width="124.3701" x="406.0801" y="147.86"/><text fill="#000000" font-family="Verdana" font-size="13" font-weight="700" lengthAdjust="spacing" textLength="106.9901" x="412.0801" y="165.757">Phase 1: Schema</text><g class="message" data-entity-1="part1" data-entity-2="part2" data-source-line="38" id="msg1"><polygon fill="#58A6FF" points="146.571,203.272,156.571,207.272,146.571,211.272,150.571,207.272" style="stroke:#58A6FF;stroke-width:1;stroke-linejoin:miter;stroke-miterlimit:10;"/><line style="stroke:#58A6FF;stroke-width:1;stroke-dasharray:2,2;" x1="30.8569" x2="152.571" y1="207.272" y2="207.272"/><text fill="#8B949E" font-family="Verdana" font-size="13" lengthAdjust="spacing" textLength="103.7141" x="37.8569" y="201.463">sample 10K rows</text></g><g class="message" data-entity-1="part2" data-entity-2="part2" data-source-line="39" id="msg2"><line style="stroke:#58A6FF;stroke-width:1;stroke-dasharray:2,2;" x1="158.571" x2="200.571" y1="238.978" y2="238.978"/><line style="stroke:#58A6FF;stroke-width:1;stroke-dasharray:2,2;" x1="200.571" x2="200.571" y1="238.978" y2="251.978"/><line style="stroke:#58A6FF;stroke-width:1;stroke-dasharray:2,2;" x1="159.571" x2="200.571" y1="251.978" y2="251.978"/><polygon fill="#58A6FF" points="169.571,247.978,159.571,251.978,169.571,255.978,165.571,251.978" style="stroke:#58A6FF;stroke-width:1;stroke-linejoin:miter;stroke-miterlimit:10;"/><text fill="#8B949E" font-family="Verdana" font-size="13" lengthAdjust="spacing" textLength="112.3331" x="165.571" y="233.169">TypeState cascade</text></g><path d="M163,264.978 L163,309.978 L326,309.978 L326,274.978 L316,264.978 L163,264.978" fill="#1C2128" style="stroke:#30363D;stroke-width:1;"/><path d="M316,264.978 L316,274.978 L326,274.978 L316,264.978" fill="#1C2128" style="stroke:#30363D;stroke-width:1;"/><text fill="#8B949E" font-family="Verdana" font-size="13" lengthAdjust="spacing" textLength="140.7381" x="169" y="283.875">--full-schema-inference</text><text fill="#8B949E" font-family="Verdana" font-size="13" lengthAdjust="spacing" textLength="142.7921" x="169" y="301.581">scans ALL rows&lt;/color&gt;</text><rect fill="#FFFFFF" height="3" style="stroke:#FFFFFF;stroke-width:1;" width="926.5303" x="5" y="337.2431"/><line style="stroke:#000000;stroke-width:0.5;" x1="5" x2="931.5303" y1="337.2431" y2="337.2431"/><line style="stroke:#000000;stroke-width:0.5;" x1="5" x2="931.5303" y1="340.2431" y2="340.2431"/><rect fill="#FFFFFF" height="25.706" style="stroke:#000000;stroke-width:1;" width="115.7641" x="410.3831" y="325.39"/><text fill="#000000" font-family="Verdana" font-size="13" font-weight="700" lengthAdjust="spacing" textLength="98.3841" x="416.3831" y="343.2871">Phase 2: Blocks</text><g class="message" data-entity-1="part1" data-entity-2="part4" data-source-line="46" id="msg3"><polygon fill="#58A6FF" points="402.3342,380.8021,412.3342,384.8021,402.3342,388.8021,406.3342,384.8021" style="stroke:#58A6FF;stroke-width:1;stroke-linejoin:miter;stroke-miterlimit:10;"/><line style="stroke:#58A6FF;stroke-width:1;stroke-dasharray:2,2;" x1="30.8569" x2="408.3342" y1="384.8021" y2="384.8021"/><text fill="#8B949E" font-family="Verdana" font-size="13" lengthAdjust="spacing" textLength="76.1281" x="37.8569" y="378.9931">stream rows</text></g><g class="message" data-entity-1="part4" data-entity-2="part3" data-source-line="47" id="msg4"><polygon fill="#58A6FF" points="295.9041,412.5081,285.9041,416.5081,295.9041,420.5081,291.9041,416.5081" style="stroke:#58A6FF;stroke-width:1;stroke-linejoin:miter;stroke-miterlimit:10;"/><line style="stroke:#58A6FF;stroke-width:1;stroke-dasharray:2,2;" x1="289.9041" x2="413.3342" y1="416.5081" y2="416.5081"/><text fill="#8B949E" font-family="Verdana" font-size="13" lengthAdjust="spacing" textLength="105.4301" x="301.9041" y="410.6991">push Block[100K]</text></g><path d="M289,429.5081 L289,474.5081 L468,474.5081 L468,439.5081 L458,429.5081 L289,429.5081" fill="#1C2128" style="stroke:#30363D;stroke-width:1;"/><path d="M458,429.5081 L458,439.5081 L468,439.5081 L458,429.5081" fill="#1C2128" style="stroke:#30363D;stroke-width:1;"/><text fill="#8B949E" font-family="Verdana" font-size="13" lengthAdjust="spacing" textLength="128.2971" x="295" y="448.4051">Backpressure: blocks</text><text fill="#8B949E" font-family="Verdana" font-size="13" lengthAdjust="spacing" textLength="158.3141" x="295" y="466.1111">when channel full&lt;/color&gt;</text><rect fill="#FFFFFF" height="3" style="stroke:#FFFFFF;stroke-width:1;" width="926.5303" x="5" y="501.7731"/><line style="stroke:#000000;stroke-width:0.5;" x1="5" x2="931.5303" y1="501.7731" y2="501.7731"/><line style="stroke:#000000;stroke-width:0.5;" x1="5" x2="931.5303" y1="504.7731" y2="504.7731"/><rect fill="#FFFFFF" height="25.706" style="stroke:#000000;stroke-width:1;" width="122.6671" x="406.9316" y="489.9201"/><text fill="#000000" font-family="Verdana" font-size="13" font-weight="700" lengthAdjust="spacing" textLength="105.2871" x="412.9316" y="507.8171">Phase 3: Parallel</text><g class="message" data-entity-1="part3" data-entity-2="part5" data-source-line="54" id="msg5"><polygon fill="#58A6FF" points="508.246,545.3322,518.246,549.3322,508.246,553.3322,512.246,549.3322" style="stroke:#58A6FF;stroke-width:1;stroke-linejoin:miter;stroke-miterlimit:10;"/><line style="stroke:#58A6FF;stroke-width:1;stroke-dasharray:2,2;" x1="284.9041" x2="514.246" y1="549.3322" y2="549.3322"/><text fill="#8B949E" font-family="Verdana" font-size="13" lengthAdjust="spacing" textLength="64.7401" x="291.9041" y="543.5232">pull blocks</text></g><g class="message" data-entity-1="part5" data-entity-2="part5" data-source-line="55" id="msg6"><line style="stroke:#58A6FF;stroke-width:1;stroke-dasharray:2,2;" x1="520.246" x2="562.246" y1="581.0382" y2="581.0382"/><line style="stroke:#58A6FF;stroke-width:1;stroke-dasharray:2,2;" x1="562.246" x2="562.246" y1="581.0382" y2="594.0382"/><line style="stroke:#58A6FF;stroke-width:1;stroke-dasharray:2,2;" x1="521.246" x2="562.246" y1="594.0382" y2="594.0382"/><polygon fill="#58A6FF" points="531.246,590.0382,521.246,594.0382,531.246,598.0382,527.246,594.0382" style="stroke:#58A6FF;stroke-width:1;stroke-linejoin:miter;stroke-miterlimit:10;"/><text fill="#8B949E" font-family="Verdana" font-size="13" lengthAdjust="spacing" textLength="119.3141" x="527.246" y="575.2292">per-column metrics</text></g><g class="message" data-entity-1="part5" data-entity-2="part6" data-source-line="56" id="msg7"><polygon fill="#58A6FF" points="650.5331,621.7442,660.5331,625.7442,650.5331,629.7442,654.5331,625.7442" style="stroke:#58A6FF;stroke-width:1;stroke-linejoin:miter;stroke-miterlimit:10;"/><line style="stroke:#58A6FF;stroke-width:1;stroke-dasharray:2,2;" x1="520.246" x2="656.5331" y1="625.7442" y2="625.7442"/><text fill="#8B949E" font-family="Verdana" font-size="13" lengthAdjust="spacing" textLength="118.2871" x="527.246" y="619.9352">(batch_idx, metrics)</text></g><path d="M525,638.7442 L525,683.7442 L710,683.7442 L710,648.7442 L700,638.7442 L525,638.7442" fill="#1C2128" style="stroke:#30363D;stroke-width:1;"/><path d="M700,638.7442 L700,648.7442 L710,648.7442 L700,638.7442" fill="#1C2128" style="stroke:#30363D;stroke-width:1;"/><text fill="#8B949E" font-family="Verdana" font-size="13" lengthAdjust="spacing" textLength="143.1561" x="531" y="657.6412">N workers concurrently</text><text fill="#8B949E" font-family="Verdana" font-size="13" lengthAdjust="spacing" textLength="164.7361" x="531" y="675.3472">on different blocks&lt;/color&gt;</text><rect fill="#FFFFFF" height="3" style="stroke:#FFFFFF;stroke-width:1;" width="926.5303" x="5" y="711.0092"/><line style="stroke:#000000;stroke-width:0.5;" x1="5" x2="931.5303" y1="711.0092" y2="711.0092"/><line style="stroke:#000000;stroke-width:0.5;" x1="5" x2="931.5303" y1="714.0092" y2="714.0092"/><rect fill="#FFFFFF" height="25.706" style="stroke:#000000;stroke-width:1;" width="109.4981" x="413.5161" y="699.1562"/><text fill="#000000" font-family="Verdana" font-size="13" font-weight="700" lengthAdjust="spacing" textLength="92.1181" x="419.5161" y="717.0532">Phase 4: Write</text><g class="message" data-entity-1="part6" data-entity-2="part6" data-source-line="63" id="msg8"><line style="stroke:#58A6FF;stroke-width:1;stroke-dasharray:2,2;" x1="662.5331" x2="704.5331" y1="758.5683" y2="758.5683"/><line style="stroke:#58A6FF;stroke-width:1;stroke-dasharray:2,2;" x1="704.5331" x2="704.5331" y1="758.5683" y2="771.5683"/><line style="stroke:#58A6FF;stroke-width:1;stroke-dasharray:2,2;" x1="663.5331" x2="704.5331" y1="771.5683" y2="771.5683"/><polygon fill="#58A6FF" points="673.5331,767.5683,663.5331,771.5683,673.5331,775.5683,669.5331,771.5683" style="stroke:#58A6FF;stroke-width:1;stroke-linejoin:miter;stroke-miterlimit:10;"/><text fill="#8B949E" font-family="Verdana" font-size="13" lengthAdjust="spacing" textLength="103.8441" x="669.5331" y="752.7593">BTreeMap buffer</text></g><g class="message" data-entity-1="part6" data-entity-2="part7" data-source-line="64" id="msg9"><polygon fill="#58A6FF" points="799.7752,799.2743,809.7752,803.2743,799.7752,807.2743,803.7752,803.2743" style="stroke:#58A6FF;stroke-width:1;stroke-linejoin:miter;stroke-miterlimit:10;"/><line style="stroke:#58A6FF;stroke-width:1;stroke-dasharray:2,2;" x1="662.5331" x2="805.7752" y1="803.2743" y2="803.2743"/><text fill="#8B949E" font-family="Verdana" font-size="13" lengthAdjust="spacing" textLength="125.2421" x="669.5331" y="797.4653">ArrowWriter ZSTD(5)</text></g><path d="M667,816.2743 L667,861.2743 L904,861.2743 L904,826.2743 L894,816.2743 L667,816.2743" fill="#1C2128" style="stroke:#30363D;stroke-width:1;"/><path d="M894,816.2743 L894,826.2743 L904,826.2743 L894,816.2743" fill="#1C2128" style="stroke:#30363D;stroke-width:1;"/><text fill="#8B949E" font-family="Verdana" font-size="13" lengthAdjust="spacing" textLength="159.2891" x="673" y="835.1713">Preserves input row order</text><text fill="#8B949E" font-family="Verdana" font-size="13" lengthAdjust="spacing" textLength="216.3202" x="673" y="852.8773">despite parallel completion&lt;/color&gt;</text><rect fill="#FFFFFF" height="3" style="stroke:#FFFFFF;stroke-width:1;" width="926.5303" x="5" y="888.5393"/><line style="stroke:#000000;stroke-width:0.5;" x1="5" x2="931.5303" y1="888.5393" y2="888.5393"/><line style="stroke:#000000;stroke-width:0.5;" x1="5" x2="931.5303" y1="891.5393" y2="891.5393"/><rect fill="#FFFFFF" height="25.706" style="stroke:#000000;stroke-width:1;" width="117.9091" x="409.3106" y="876.6863"/><text fill="#000000" font-family="Verdana" font-size="13" font-weight="700" lengthAdjust="spacing" textLength="100.5291" x="415.3106" y="894.5833">Phase 5: Report</text><g class="message" data-entity-1="part7" data-entity-2="part7" data-source-line="71" id="msg10"><line style="stroke:#58A6FF;stroke-width:1;stroke-dasharray:2,2;" x1="811.7752" x2="853.7752" y1="936.0983" y2="936.0983"/><line style="stroke:#58A6FF;stroke-width:1;stroke-dasharray:2,2;" x1="853.7752" x2="853.7752" y1="936.0983" y2="949.0983"/><line style="stroke:#58A6FF;stroke-width:1;stroke-dasharray:2,2;" x1="812.7752" x2="853.7752" y1="949.0983" y2="949.0983"/><polygon fill="#58A6FF" points="822.7752,945.0983,812.7752,949.0983,822.7752,953.0983,818.7752,949.0983" style="stroke:#58A6FF;stroke-width:1;stroke-linejoin:miter;stroke-miterlimit:10;"/><text fill="#8B949E" font-family="Verdana" font-size="13" lengthAdjust="spacing" textLength="105.7551" x="818.7752" y="930.2893">Validation Report</text></g><?plantuml-src bLHXRzem4FsUNt63BoqQAe52IGH8RQT9KxiDjTKgRPqcuroAHR0psodhflttsOuJ4QZOzYMopk_kthjxyIkzn3L2dX760xLYF2UIh651wEfHYe8dbo8J4jgz90p3ioq4eTh4VmK05q8cA3rkE2QZD3NHju9h7wDH4YPHy7ihstmreomdN9SrTllrm_wed-nM7_G6eq7or-hV2opmvReXDPN7_yBQnxRh4Yd5njKza3TUHASHDlAuqFz5voMPTTb0CvqXJAYDnrx-RABOJup3qQpJcPkUMOQP8ScVK2ecECnPZXdZsEbCJYnoDZbn-RCWA1VPUiVpGhU0A70dGo9THCDUiBsfrYqrRY4EfTpHA4X7AIw2SkIjooNX7BC7VaH93kDZ1wLbi3PHe-HSYgIWA4rAsEjTWPcmAjDoVmFjf1z5_NupxuOy2_x0xuLS6OqkOLEUeNqMqPvPImD_BvbsNIxk9E9xafTDDYvSg_N3-5ZeQXhb4ThfsJWSZO9WEeNvaYY4C8Po732T1kNCkjrPDPSO55ddPa-XrnJuYmRcxZd7MqsCEoXHb2GOEAj8zhZK858FD4QejbswODRjfaMMTSlhBkCfIkGK3T1KuGhEhwzTqthBo1FdmYt-_HWkCa5Ngic_dhfHe2KQzphsTTXYgeN6a1TgMPRvOhVtTOU_1-uBi3z2Bb6fGc8C2yV3e3PBv7LrA_6GW44CjTMDX2hD4goSO0bcMLM_YkuWK7PDasBDOOrQChe3B0qImz62QBhynf8VholWyOvSdxSlzqFTZmfE2scsfRDdWpE_Pi9IjpxjQHwIV1g3yx7LwuarE5RUXaLXYsvZl8zZEBUFMFatmEVRkpT7mpqPxd9VnTmi3EKJAc3EBlOnTC-MWIQeSaiihpP2XRM_De_F8K7366um5r9RHPvYW-qdah64s38U6Fm1?></g></svg>