<svg xmlns="http://www.w3.org/2000/svg" xmlns:xlink="http://www.w3.org/1999/xlink" contentStyleType="text/css" data-diagram-type="STATE" height="1269px" preserveAspectRatio="none" style="width:534px;height:1269px;background:#0D1117;" version="1.1" viewBox="0 0 534 1269" width="534px" zoomAndPan="magnify"><?plantuml $version$?><defs/><g><rect fill="#0D1117" height="1269" style="stroke:none;stroke-width:1;" width="534" x="0" y="0"/><g class="title" data-source-line="18"><text fill="#C9D1D9" font-family="Verdana" font-size="18" font-weight="700" lengthAdjust="spacing" textLength="412.3954" x="60.2558" y="34.2419">Type Inference &#8212; Gradual Narrowing Cascade</text></g><g class="entity" data-qualified-name="start" data-source-line="20" id="ent0001"><rect fill="#0D1117" height="50" rx="12.5" ry="12.5" style="stroke:#30363D;stroke-width:1;" width="60.9078" x="225.16" y="71.9258"/><line style="stroke:#30363D;stroke-width:1;" x1="225.16" x2="286.0678" y1="100.9938" y2="100.9938"/><text fill="#C9D1D9" font-family="Verdana" font-size="14" lengthAdjust="spacing" text-decoration="underline" textLength="40.9078" x="235.16" y="91.8918">START</text></g><g class="entity" data-qualified-name="Boolean" data-source-line="21" id="ent0002"><rect fill="#1F6FEB" height="50" rx="12.5" ry="12.5" style="stroke:#30363D;stroke-width:1;" width="74.0538" x="218.59" y="240.8958"/><line style="stroke:#30363D;stroke-width:1;" x1="218.59" x2="292.6438" y1="269.9638" y2="269.9638"/><text fill="#C9D1D9" font-family="Verdana" font-size="14" lengthAdjust="spacing" textLength="54.0538" x="228.59" y="260.8618">Boolean</text></g><g class="entity" data-qualified-name="Int64" data-source-line="22" id="ent0003"><rect fill="#3FB950" height="50" rx="12.5" ry="12.5" style="stroke:#30363D;stroke-width:1;" width="54.4679" x="228.38" y="394.4558"/><line style="stroke:#30363D;stroke-width:1;" x1="228.38" x2="282.8479" y1="423.5238" y2="423.5238"/><text fill="#C9D1D9" font-family="Verdana" font-size="14" lengthAdjust="spacing" textLength="34.4679" x="238.38" y="414.4218">Int64</text></g><g class="entity" data-qualified-name="UInt64" data-source-line="23" id="ent0004"><rect fill="#D29922" height="50" rx="12.5" ry="12.5" style="stroke:#30363D;stroke-width:1;" width="64.7018" x="223.27" y="541.4558"/><line style="stroke:#30363D;stroke-width:1;" x1="223.27" x2="287.9718" y1="570.5238" y2="570.5238"/><text fill="#C9D1D9" font-family="Verdana" font-size="14" lengthAdjust="spacing" textLength="44.7018" x="233.27" y="561.4218">UInt64</text></g><g class="entity" data-qualified-name="Float64" data-source-line="24" id="ent0005"><rect fill="#D2A8FF" height="50" rx="12.5" ry="12.5" style="stroke:#30363D;stroke-width:1;" width="68.2718" x="221.48" y="688.4558"/><line style="stroke:#30363D;stroke-width:1;" x1="221.48" x2="289.7518" y1="717.5238" y2="717.5238"/><text fill="#C9D1D9" font-family="Verdana" font-size="14" lengthAdjust="spacing" textLength="48.2718" x="231.48" y="708.4218">Float64</text></g><g class="entity" data-qualified-name="Date32" data-source-line="25" id="ent0006"><rect fill="#F78166" height="50" rx="12.5" ry="12.5" style="stroke:#30363D;stroke-width:1;" width="67.0398" x="222.1" y="850.8658"/><line style="stroke:#30363D;stroke-width:1;" x1="222.1" x2="289.1398" y1="879.9338" y2="879.9338"/><text fill="#C9D1D9" font-family="Verdana" font-size="14" lengthAdjust="spacing" textLength="47.0398" x="232.1" y="870.8318">Date32</text></g><g class="entity" data-qualified-name="Timestamp" data-source-line="26" id="ent0007"><rect fill="#79C0FF" height="50" rx="12.5" ry="12.5" style="stroke:#30363D;stroke-width:1;" width="93.6957" x="208.77" y="1037.8358"/><line style="stroke:#30363D;stroke-width:1;" x1="208.77" x2="302.4657" y1="1066.9038" y2="1066.9038"/><text fill="#C9D1D9" font-family="Verdana" font-size="14" lengthAdjust="spacing" textLength="73.6957" x="218.77" y="1057.8018">Timestamp</text></g><g class="entity" data-qualified-name="LargeUtf8" data-source-line="27" id="ent0008"><rect fill="#F85149" height="50" rx="12.5" ry="12.5" style="stroke:#30363D;stroke-width:1;" width="85.5898" x="212.82" y="1197.9558"/><line style="stroke:#30363D;stroke-width:1;" x1="212.82" x2="298.4098" y1="1227.0238" y2="1227.0238"/><text fill="#C9D1D9" font-family="Verdana" font-size="14" lengthAdjust="spacing" textLength="65.5898" x="222.82" y="1217.9218">LargeUtf8</text></g><g class="entity" data-qualified-name="GMN16" data-source-line="38" id="ent0017"><path d="M327.67,234.3358 L327.67,261.8958 L293.04,265.8958 L327.67,269.8958 L327.67,297.4539 A0,0 0 0 0 327.67,297.4539 L469.5701,297.4539 A0,0 0 0 0 469.5701,297.4539 L469.5701,244.3358 L459.5701,234.3358 L327.67,234.3358 A0,0 0 0 0 327.67,234.3358" fill="#1C2128" style="stroke:#30363D;stroke-width:1;"/><path d="M459.5701,234.3358 L459.5701,244.3358 L469.5701,244.3358 L459.5701,234.3358" fill="#1C2128" style="stroke:#30363D;stroke-width:1;"/><text fill="#C9D1D9" font-family="Verdana" font-size="13" lengthAdjust="spacing" textLength="120.9001" x="333.67" y="253.2329">Matches: true/false,</text><text fill="#8B949E" font-family="Verdana" font-size="13" lengthAdjust="spacing" textLength="115.1801" x="333.67" y="270.9389">yes/no, y/n, on/off,</text><text fill="#8B949E" font-family="Verdana" font-size="13" lengthAdjust="spacing" textLength="90.9741" x="333.67" y="288.6449">t/f, 0/1&lt;/color&gt;</text></g><g class="entity" data-qualified-name="GMN19" data-source-line="44" id="ent0020"><path d="M324.08,835.4558 L324.08,871.8658 L289.6,875.8658 L324.08,879.8658 L324.08,916.2799 A0,0 0 0 0 324.08,916.2799 L477.1471,916.2799 A0,0 0 0 0 477.1471,916.2799 L477.1471,845.4558 L467.1471,835.4558 L324.08,835.4558 A0,0 0 0 0 324.08,835.4558" fill="#1C2128" style="stroke:#30363D;stroke-width:1;"/><path d="M467.1471,835.4558 L467.1471,845.4558 L477.1471,845.4558 L467.1471,835.4558" fill="#1C2128" style="stroke:#30363D;stroke-width:1;"/><text fill="#C9D1D9" font-family="Verdana" font-size="13" lengthAdjust="spacing" textLength="53.8331" x="330.08" y="854.3529">Formats:</text><text fill="#8B949E" font-family="Verdana" font-size="13" lengthAdjust="spacing" textLength="80.3661" x="330.08" y="872.0589">YYYY-MM-DD</text><text fill="#8B949E" font-family="Verdana" font-size="13" lengthAdjust="spacing" textLength="81.666" x="330.08" y="889.7649">DD/MM/YYYY</text><text fill="#8B949E" font-family="Verdana" font-size="13" lengthAdjust="spacing" textLength="132.0671" x="330.08" y="907.4709">MM/DD/YYYY&lt;/color&gt;</text></g><g class="entity" data-qualified-name="GMN22" data-source-line="51" id="ent0023"><path d="M337.33,1031.2758 L337.33,1058.8358 L302.92,1062.8358 L337.33,1066.8358 L337.33,1094.3939 A0,0 0 0 0 337.33,1094.3939 L519.9071,1094.3939 A0,0 0 0 0 519.9071,1094.3939 L519.9071,1041.2758 L509.9071,1031.2758 L337.33,1031.2758 A0,0 0 0 0 337.33,1031.2758" fill="#1C2128" style="stroke:#30363D;stroke-width:1;"/><path d="M509.9071,1031.2758 L509.9071,1041.2758 L519.9071,1041.2758 L509.9071,1031.2758" fill="#1C2128" style="stroke:#30363D;stroke-width:1;"/><text fill="#C9D1D9" font-family="Verdana" font-size="13" lengthAdjust="spacing" textLength="111.0981" x="343.33" y="1050.1729">RFC3339, ISO8601</text><text fill="#8B949E" font-family="Verdana" font-size="13" lengthAdjust="spacing" textLength="147.8362" x="343.33" y="1067.8789">YYYY-MM-DD HH:MM:SS</text><text fill="#8B949E" font-family="Verdana" font-size="13" lengthAdjust="spacing" textLength="161.5771" x="343.33" y="1085.5849">with fraction/zone&lt;/color&gt;</text></g><g class="entity" data-qualified-name="GMN25" data-source-line="57" id="ent0026"><path d="M333.74,1191.3958 L333.74,1218.9558 L298.65,1222.9558 L333.74,1226.9558 L333.74,1254.5139 A0,0 0 0 0 333.74,1254.5139 L483.5051,1254.5139 A0,0 0 0 0 483.5051,1254.5139 L483.5051,1201.3958 L473.5051,1191.3958 L333.74,1191.3958 A0,0 0 0 0 333.74,1191.3958" fill="#1C2128" style="stroke:#30363D;stroke-width:1;"/><path d="M473.5051,1191.3958 L473.5051,1201.3958 L483.5051,1201.3958 L473.5051,1191.3958" fill="#1C2128" style="stroke:#30363D;stroke-width:1;"/><text fill="#F85149" font-family="Verdana" font-size="13" lengthAdjust="spacing" textLength="128.7651" x="339.74" y="1210.2929">Fallback &#8212; preserves</text><text fill="#8B949E" font-family="Verdana" font-size="13" lengthAdjust="spacing" textLength="106.2231" x="339.74" y="1227.9989">all original values</text><text fill="#8B949E" font-family="Verdana" font-size="13" lengthAdjust="spacing" textLength="109.2001" x="339.74" y="1245.7049">as strings&lt;/color&gt;</text></g><g class="entity" data-qualified-name="GMN28" data-source-line="63" id="ent0029"><path d="M11,56.5158 L11,137.3399 A0,0 0 0 0 11,137.3399 L190.2361,137.3399 A0,0 0 0 0 190.2361,137.3399 L190.2361,100.9258 L224.85,96.9258 L190.2361,92.9258 L190.2361,66.5158 L180.2361,56.5158 L11,56.5158 A0,0 0 0 0 11,56.5158" fill="#1C2128" style="stroke:#30363D;stroke-width:1;"/><path d="M180.2361,56.5158 L180.2361,66.5158 L190.2361,66.5158 L180.2361,56.5158" fill="#1C2128" style="stroke:#30363D;stroke-width:1;"/><text fill="#8B949E" font-family="Verdana" font-size="13" lengthAdjust="spacing" textLength="158.2361" x="17" y="75.4129">95% confidence threshold</text><text fill="#8B949E" font-family="Verdana" font-size="13" lengthAdjust="spacing" textLength="135.4341" x="17" y="93.1189">for final type selection</text><text fill="#8B949E" font-family="Verdana" font-size="13" lengthAdjust="spacing" textLength="144.6381" x="17" y="110.8249">(--full-schema-inference</text><text fill="#8B949E" font-family="Verdana" font-size="13" lengthAdjust="spacing" textLength="146.6921" x="17" y="128.5309">scans ALL rows)&lt;/color&gt;</text></g><!--link start to Boolean--><g class="link" data-entity-1="ent0001" data-entity-2="ent0002" data-link-type="dependency" data-source-line="29" id="lnk9"><path d="M255.62,122.2058 C255.62,153.8658 255.62,203.9158 255.62,235.5858" fill="none" id="start-to-Boolean" style="stroke:#58A6FF;stroke-width:1;"/><polygon fill="#58A6FF" points="255.62,240.5858,259.62,231.5858,255.62,235.5858,251.62,231.5858,255.62,240.5858" style="stroke:#58A6FF;stroke-width:1;stroke-linejoin:miter;stroke-miterlimit:10;"/><text fill="#8B949E" font-family="Verdana" font-size="13" lengthAdjust="spacing" textLength="103.7141" x="256.62" y="182.2329">sample 10K rows</text><text fill="#8B949E" font-family="Verdana" font-size="13" lengthAdjust="spacing" textLength="69.7581" x="273.598" y="199.9389">per column</text></g><!--link Boolean to Int64--><g class="link" data-entity-1="ent0002" data-entity-2="ent0003" data-link-type="dependency" data-source-line="30" id="lnk10"><path d="M255.62,291.2458 C255.62,319.5258 255.62,360.9058 255.62,389.1658" fill="none" id="Boolean-to-Int64" style="stroke:#58A6FF;stroke-width:1;"/><polygon fill="#58A6FF" points="255.62,394.1658,259.62,385.1658,255.62,389.1658,251.62,385.1658,255.62,394.1658" style="stroke:#58A6FF;stroke-width:1;stroke-linejoin:miter;stroke-miterlimit:10;"/><text fill="#8B949E" font-family="Verdana" font-size="13" lengthAdjust="spacing" textLength="137.8521" x="256.62" y="342.3529">value does NOT match</text><text fill="#8B949E" font-family="Verdana" font-size="13" lengthAdjust="spacing" textLength="105.2091" x="272.9415" y="360.0589">Boolean patterns</text></g><!--link Int64 to UInt64--><g class="link" data-entity-1="ent0003" data-entity-2="ent0004" data-link-type="dependency" data-source-line="31" id="lnk11"><path d="M255.62,444.7258 C255.62,471.4958 255.62,509.3058 255.62,536.1058" fill="none" id="Int64-to-UInt64" style="stroke:#58A6FF;stroke-width:1;"/><polygon fill="#58A6FF" points="255.62,541.1058,259.62,532.1058,255.62,536.1058,251.62,532.1058,255.62,541.1058" style="stroke:#58A6FF;stroke-width:1;stroke-linejoin:miter;stroke-miterlimit:10;"/><text fill="#8B949E" font-family="Verdana" font-size="13" lengthAdjust="spacing" textLength="110.2531" x="256.62" y="489.3529">negative value OR</text><text fill="#8B949E" font-family="Verdana" font-size="13" lengthAdjust="spacing" textLength="106.8601" x="258.3165" y="507.0589">beyond i64 range</text></g><!--link UInt64 to Float64--><g class="link" data-entity-1="ent0004" data-entity-2="ent0005" data-link-type="dependency" data-source-line="32" id="lnk12"><path d="M255.62,591.7258 C255.62,618.4958 255.62,656.3058 255.62,683.1058" fill="none" id="UInt64-to-Float64" style="stroke:#58A6FF;stroke-width:1;"/><polygon fill="#58A6FF" points="255.62,688.1058,259.62,679.1058,255.62,683.1058,251.62,679.1058,255.62,688.1058" style="stroke:#58A6FF;stroke-width:1;stroke-linejoin:miter;stroke-miterlimit:10;"/><text fill="#8B949E" font-family="Verdana" font-size="13" lengthAdjust="spacing" textLength="104.4421" x="268.476" y="636.3529">contains '.', 'e', 'E'</text><text fill="#8B949E" font-family="Verdana" font-size="13" lengthAdjust="spacing" textLength="128.1541" x="256.62" y="654.0589">or beyond u64 range</text></g><!--link Float64 to Date32--><g class="link" data-entity-1="ent0005" data-entity-2="ent0006" data-link-type="dependency" data-source-line="33" id="lnk13"><path d="M255.62,738.8158 C255.62,769.0558 255.62,815.3158 255.62,845.5358" fill="none" id="Float64-to-Date32" style="stroke:#58A6FF;stroke-width:1;"/><polygon fill="#58A6FF" points="255.62,850.5358,259.62,841.5358,255.62,845.5358,251.62,841.5358,255.62,850.5358" style="stroke:#58A6FF;stroke-width:1;stroke-linejoin:miter;stroke-miterlimit:10;"/><text fill="#8B949E" font-family="Verdana" font-size="13" lengthAdjust="spacing" textLength="84.5261" x="268.398" y="783.3529">recognized as</text><text fill="#8B949E" font-family="Verdana" font-size="13" lengthAdjust="spacing" textLength="108.0821" x="256.62" y="801.0589">valid date pattern</text></g><!--link Date32 to Timestamp--><g class="link" data-entity-1="ent0006" data-entity-2="ent0007" data-link-type="dependency" data-source-line="34" id="lnk14"><path d="M255.62,901.0458 C255.62,936.4058 255.62,996.8358 255.62,1032.3558" fill="none" id="Date32-to-Timestamp" style="stroke:#58A6FF;stroke-width:1;"/><polygon fill="#58A6FF" points="255.62,1037.3558,259.62,1028.3558,255.62,1032.3558,251.62,1028.3558,255.62,1037.3558" style="stroke:#58A6FF;stroke-width:1;stroke-linejoin:miter;stroke-miterlimit:10;"/><text fill="#8B949E" font-family="Verdana" font-size="13" lengthAdjust="spacing" textLength="84.5261" x="279.76" y="961.1729">recognized as</text><text fill="#8B949E" font-family="Verdana" font-size="13" lengthAdjust="spacing" textLength="119.2361" x="262.405" y="978.8789">RFC3339 / datetime</text><text fill="#8B949E" font-family="Verdana" font-size="13" lengthAdjust="spacing" textLength="130.8061" x="256.62" y="996.5849">with time component</text></g><!--link Timestamp to LargeUtf8--><g class="link" data-entity-1="ent0007" data-entity-2="ent0008" data-link-type="dependency" data-source-line="35" id="lnk15"><path d="M255.62,1088.1958 C255.62,1117.9158 255.62,1162.8458 255.62,1192.5658" fill="none" id="Timestamp-to-LargeUtf8" style="stroke:#58A6FF;stroke-width:1;"/><polygon fill="#58A6FF" points="255.62,1197.5658,259.62,1188.5658,255.62,1192.5658,251.62,1188.5658,255.62,1197.5658" style="stroke:#58A6FF;stroke-width:1;stroke-linejoin:miter;stroke-miterlimit:10;"/><text fill="#8B949E" font-family="Verdana" font-size="13" lengthAdjust="spacing" textLength="84.1621" x="266.201" y="1139.2929">not parseable</text><text fill="#8B949E" font-family="Verdana" font-size="13" lengthAdjust="spacing" textLength="103.3241" x="256.62" y="1156.9989">by any prior type</text></g><?plantuml-src ZLJRJjj047ttLqn15MsKr752Z6sXI42QWaf0Wl1GAHBQsBE9XRDhxMv0eQhKZ-WNzaiwkt4k427g1yi-EpDdvipiV31Jd26K1Sk5fnzoKJB5PZ1cwSD4oRd8pcGX5Umtio08ZhOij646uQS7SFhQjXMqmbPcJwJAK5LekzaEsnRjIs4gB8sp88kzNrjncLBooSMjR3eH2pb_wHUDuyCON_W9-LOwGKe9HV-JpZgiPt9J81od5a-gDBl7Ed_698YwjTfmKI9S28uAHOhmz_SV-APODcS5NBaASZ61CwPJbc6jTknRp-wnx-9rFMyf7hsL0QPXx_x-TdXoCxo_tziexKnEfIoG2Ig2Xnp75NeXJ7X89V1nt6bMs5q5PgquRhKgi5z8Lg4i8X6NQ8zUxHRiywCe2CCA7EOpfAzP2Vj7STfS6ryoDS4xmoEoZph1OUoofxmRZUuwlGGqUP9YGVCxKFLw94fKGENEPy9RMLcFPPO9FB9YZf19r71rFOGPC-bq95QM9JC6bT3Uqjmwtgqy1KwOoH-n2d5zCn9ZN4YHGKxdYea9UdSRlvK42MKZ34svXeCl1tKuGFlwUZ0IrFagm7mTOELb8rHo9Q0mbHD1dSoeQID1_7a6cHMfojUhJAtNHiyTnvl-MRlTZi5tpeOCH-8fDrEmdvJch9G2XV4s8Mp0JICIE-p4gJIoSK7EumKmiO1IvLIBeT7qF7STL3wP6f1yrIUQzbSZFR2weqx0g3dwd1KQwsIrGEqBMOU5B-eWXIyvjx3nUHsQVh0UP2JHBDDhlgKEktHzgQZJEg6J7_Gq1eD6hqS_lPu_6FWMeX_wed_xyoxFMg5TgahaEbpSNaTXCtX12UVdoM2GtDuIwfJdYgKcfqgVIVftQTUjsA9TNevkdnM5NPvk9PGADQf7r6H7E4YAa0lQ4Mvq7Qff2oXQ5lejqWAvutINRejlkQkwSUUZ7MoUPsuHcIbHJcLX5nkdOU2Epeu4Q2pGrKX7dneDFY-AXgRcprWZNoqoEgALHLVavFBItUFFksdz0m00?></g></svg>